<svg xmlns="http://www.w3.org/2000/svg" xmlns:xlink="http://www.w3.org/1999/xlink" width="400" zoomAndPan="magnify" viewBox="0 0 300 149.999998" height="200" preserveAspectRatio="xMidYMid meet" version="1.0"><defs><g/><clipPath id="9c5674853b"><path d="M 24 21.011719 L 122 21.011719 L 122 96 L 24 96 Z M 24 21.011719 " clip-rule="nonzero"/></clipPath><clipPath id="ed801a4485"><path d="M 2.296875 80 L 126.796875 80 L 126.796875 129 L 2.296875 129 Z M 2.296875 80 " clip-rule="nonzero"/></clipPath></defs><path fill="#ff914d" d="M 65.152344 55.304688 L 70.398438 55.304688 L 70.398438 62.453125 L 63.242188 62.453125 L 63.242188 57.214844 C 63.242188 56.160156 64.09375 55.304688 65.152344 55.304688 " fill-opacity="1" fill-rule="nonzero"/><path fill="#ff914d" d="M 63.242188 66.742188 L 70.398438 66.742188 L 70.398438 73.890625 L 65.152344 73.890625 C 64.09375 73.890625 63.242188 73.035156 63.242188 71.980469 L 63.242188 66.742188 " fill-opacity="1" fill-rule="nonzero"/><path fill="#ff914d" d="M 82.597656 57.214844 L 82.597656 62.453125 L 75.457031 62.453125 L 75.457031 55.304688 L 80.6875 55.304688 C 81.746094 55.304688 82.597656 56.160156 82.597656 57.214844 " fill-opacity="1" fill-rule="nonzero"/><path fill="#ff914d" d="M 75.457031 66.742188 L 82.597656 66.742188 L 82.597656 71.980469 C 82.597656 73.035156 81.746094 73.890625 80.6875 73.890625 L 75.457031 73.890625 L 75.457031 66.742188 " fill-opacity="1" fill-rule="nonzero"/><g clip-path="url(#9c5674853b)"><path fill="#ff914d" d="M 119.09375 54.917969 C 117.957031 54.0625 116.84375 53.21875 115.761719 52.378906 C 114.007812 50.984375 112.242188 49.648438 110.476562 48.332031 L 94.671875 36.171875 L 91.59375 33.777344 C 86.8125 30.121094 82.011719 26.429688 77.230469 22.761719 C 76.402344 22.117188 75.570312 21.707031 74.734375 21.421875 C 74.675781 21.398438 74.652344 21.398438 74.636719 21.398438 C 74.371094 21.320312 74.128906 21.238281 73.886719 21.199219 C 73.726562 21.179688 73.605469 21.179688 73.4375 21.15625 C 73.273438 21.117188 73.097656 21.117188 72.910156 21.117188 C 72.75 21.117188 72.566406 21.117188 72.386719 21.15625 C 72.265625 21.179688 72.082031 21.179688 71.960938 21.199219 C 71.71875 21.238281 71.453125 21.320312 71.210938 21.398438 C 71.195312 21.398438 71.128906 21.398438 71.105469 21.421875 C 70.277344 21.707031 69.445312 22.117188 68.640625 22.761719 C 62.78125 27.21875 56.96875 31.699219 51.136719 36.171875 L 51.136719 31.191406 C 51.136719 30.015625 50.175781 29.039062 48.96875 29.039062 L 40.738281 29.039062 C 39.539062 29.039062 38.570312 30.015625 38.570312 31.207031 C 38.570312 36.089844 38.628906 40.242188 38.507812 44.375 C 38.464844 45.109375 38.101562 45.964844 37.578125 46.609375 C 35.089844 48.535156 32.589844 50.4375 30.085938 52.378906 C 28.988281 53.21875 27.851562 54.0625 26.78125 54.917969 C 25.257812 56.054688 24.265625 57.382812 24.371094 59.070312 C 24.320312 59.9375 24.570312 60.832031 25.09375 61.582031 C 26.351562 63.429688 28.964844 64.378906 31.375 63.671875 C 31.945312 63.484375 32.46875 63.242188 32.953125 62.960938 L 32.953125 80.121094 C 34.292969 80.078125 35.628906 80.0625 36.992188 80.0625 C 37.941406 80.0625 38.933594 80.0625 39.988281 80.105469 L 39.988281 58.175781 C 39.988281 58.011719 40.03125 57.835938 40.070312 57.648438 C 50.304688 49.847656 60.515625 42.046875 70.664062 34.1875 L 71.71875 33.414062 C 72.144531 33.15625 72.550781 33.054688 72.910156 32.988281 C 73.296875 33.054688 73.683594 33.15625 74.105469 33.414062 L 75.160156 34.1875 C 85.355469 42.046875 95.542969 49.847656 105.777344 57.648438 C 105.792969 57.835938 105.835938 58.011719 105.835938 58.175781 L 105.835938 69.761719 C 105.859375 69.761719 105.859375 69.761719 105.859375 69.761719 L 105.859375 95.398438 C 108.148438 94.464844 110.5 93.539062 112.871094 92.644531 L 112.871094 62.960938 C 113.378906 63.242188 113.902344 63.484375 114.464844 63.671875 C 116.882812 64.378906 119.496094 63.429688 120.726562 61.582031 C 121.277344 60.832031 121.5 59.9375 121.476562 59.070312 C 121.558594 57.382812 120.566406 56.054688 119.09375 54.917969 " fill-opacity="1" fill-rule="nonzero"/></g><g clip-path="url(#ed801a4485)"><path fill="#01205b" d="M 123.136719 95.230469 C 121.6875 95.039062 120.058594 95.359375 118.664062 95.859375 C 110.273438 98.90625 102.289062 102.460938 93.929688 105.59375 C 93.519531 105.75 93.042969 105.925781 92.777344 106.238281 C 90.601562 108.804688 87.734375 109.84375 84.515625 109.882812 C 79.320312 109.9375 74.128906 110.117188 68.921875 110.238281 C 65.398438 110.328125 61.878906 110.414062 58.347656 110.480469 C 57.460938 110.496094 56.332031 109.503906 56.277344 108.457031 C 56.222656 107.417969 56.929688 107.0625 57.832031 106.972656 C 58.195312 106.933594 58.558594 106.910156 58.921875 106.902344 C 63.304688 106.789062 67.6875 106.683594 72.074219 106.570312 C 76.675781 106.457031 81.292969 106.425781 85.894531 106.199219 C 89.117188 106.046875 91.304688 103.644531 91.359375 100.558594 C 91.417969 97.253906 88.84375 94.746094 85.355469 94.8125 C 80.179688 94.910156 73.636719 94.207031 68.335938 93.386719 C 62.023438 92.402344 58.953125 89.179688 52.828125 87.203125 C 43.398438 84.171875 33.742188 85.269531 24 85.472656 C 23.984375 84.792969 23.96875 84.117188 23.949219 83.441406 C 23.894531 81.296875 22.855469 80.363281 20.6875 80.417969 C 14.996094 80.546875 9.308594 80.683594 3.617188 80.828125 C 3.261719 80.828125 2.917969 80.878906 2.28125 80.925781 C 2.601562 83.957031 2.820312 86.914062 3.230469 89.847656 C 4.785156 100.757812 8.589844 110.851562 14.554688 120.117188 C 14.828125 120.546875 15.511719 120.925781 16.019531 120.941406 C 17.953125 120.996094 19.898438 120.90625 21.839844 120.835938 C 23.765625 120.769531 24.820312 119.675781 24.78125 117.714844 C 24.765625 117.160156 24.757812 116.605469 24.742188 116.046875 C 24.75 116.046875 24.757812 116.054688 24.765625 116.054688 C 29.140625 117.304688 33.5 118.621094 37.878906 119.882812 C 46.019531 122.238281 54.109375 124.777344 62.328125 126.839844 C 69.140625 128.546875 76.007812 128.75 82.484375 125.1875 C 96.203125 117.636719 109.9375 110.101562 123.644531 102.523438 C 124.332031 102.144531 124.949219 101.523438 125.402344 100.878906 C 126.957031 98.6875 125.789062 95.570312 123.136719 95.230469 " fill-opacity="1" fill-rule="nonzero"/></g><g fill="#01205b" fill-opacity="1"><g transform="translate(136.486298, 78.549518)"><g><path d="M 16.203125 -28.53125 L 16.203125 -23.6875 L 7.609375 -23.6875 L 7.609375 -17.40625 L 15.671875 -17.40625 L 15.671875 -12.5625 L 7.609375 -12.5625 L 7.609375 0 L 2.046875 0 L 2.046875 -28.53125 Z M 16.203125 -28.53125 "/></g></g></g><g fill="#01205b" fill-opacity="1"><g transform="translate(154.007357, 78.549518)"><g><path d="M 16.796875 -28.53125 L 16.796875 -23.6875 L 7.609375 -23.6875 L 7.609375 -17.40625 L 16.46875 -17.40625 L 16.46875 -12.5625 L 7.609375 -12.5625 L 7.609375 -4.84375 L 16.796875 -4.84375 L 16.796875 0 L 2.046875 0 L 2.046875 -28.53125 Z M 16.796875 -28.53125 "/></g></g></g><g fill="#01205b" fill-opacity="1"><g transform="translate(172.474468, 78.549518)"><g><path d="M 9.71875 -28.53125 C 12.726562 -28.53125 15.046875 -27.789062 16.671875 -26.3125 C 18.296875 -24.84375 19.109375 -22.71875 19.109375 -19.9375 C 19.109375 -17.925781 18.554688 -16.164062 17.453125 -14.65625 C 16.359375 -13.15625 14.96875 -12.28125 13.28125 -12.03125 L 21.34375 0 L 14.609375 0 L 7.6875 -11.5 L 7.609375 -11.5 L 7.609375 0 L 2.046875 0 L 2.046875 -28.53125 Z M 7.609375 -15.40625 L 8.21875 -15.40625 C 10.132812 -15.40625 11.5 -15.753906 12.3125 -16.453125 C 13.132812 -17.160156 13.546875 -18.273438 13.546875 -19.796875 C 13.546875 -21.285156 13.140625 -22.359375 12.328125 -23.015625 C 11.523438 -23.671875 10.175781 -24 8.28125 -24 L 7.609375 -24 Z M 7.609375 -15.40625 "/></g></g></g><g fill="#01205b" fill-opacity="1"><g transform="translate(193.590555, 78.549518)"><g><path d="M 9.71875 -28.53125 C 12.726562 -28.53125 15.046875 -27.789062 16.671875 -26.3125 C 18.296875 -24.84375 19.109375 -22.71875 19.109375 -19.9375 C 19.109375 -17.925781 18.554688 -16.164062 17.453125 -14.65625 C 16.359375 -13.15625 14.96875 -12.28125 13.28125 -12.03125 L 21.34375 0 L 14.609375 0 L 7.6875 -11.5 L 7.609375 -11.5 L 7.609375 0 L 2.046875 0 L 2.046875 -28.53125 Z M 7.609375 -15.40625 L 8.21875 -15.40625 C 10.132812 -15.40625 11.5 -15.753906 12.3125 -16.453125 C 13.132812 -17.160156 13.546875 -18.273438 13.546875 -19.796875 C 13.546875 -21.285156 13.140625 -22.359375 12.328125 -23.015625 C 11.523438 -23.671875 10.175781 -24 8.28125 -24 L 7.609375 -24 Z M 7.609375 -15.40625 "/></g></g></g><g fill="#01205b" fill-opacity="1"><g transform="translate(214.706642, 78.549518)"><g><path d="M 16.796875 -28.53125 L 16.796875 -23.6875 L 7.609375 -23.6875 L 7.609375 -17.40625 L 16.46875 -17.40625 L 16.46875 -12.5625 L 7.609375 -12.5625 L 7.609375 -4.84375 L 16.796875 -4.84375 L 16.796875 0 L 2.046875 0 L 2.046875 -28.53125 Z M 16.796875 -28.53125 "/></g></g></g><g fill="#01205b" fill-opacity="1"><g transform="translate(233.185979, 78.549518)"><g/></g></g><g fill="#ff914d" fill-opacity="1"><g transform="translate(136.486298, 118.658818)"><g><path d="M 6.0625 -29.296875 L 21.078125 -9.34375 L 21.15625 -9.34375 L 21.15625 -28.53125 L 26.71875 -28.53125 L 26.71875 0.5625 L 22.703125 0.5625 L 7.6875 -19.375 L 7.609375 -19.375 L 7.609375 0 L 2.046875 0 L 2.046875 -29.296875 Z M 6.0625 -29.296875 "/></g></g></g><g fill="#ff914d" fill-opacity="1"><g transform="translate(165.208718, 118.658818)"><g><path d="M 16.796875 -28.53125 L 16.796875 -23.6875 L 7.609375 -23.6875 L 7.609375 -17.40625 L 16.46875 -17.40625 L 16.46875 -12.5625 L 7.609375 -12.5625 L 7.609375 -4.84375 L 16.796875 -4.84375 L 16.796875 0 L 2.046875 0 L 2.046875 -28.53125 Z M 16.796875 -28.53125 "/></g></g></g><g fill="#ff914d" fill-opacity="1"><g transform="translate(183.675829, 118.658818)"><g><path d="M 20.09375 -28.90625 L 26 -9.078125 L 26.078125 -9.078125 L 31.671875 -28.53125 L 37.5 -28.53125 L 27.859375 0.5625 L 23.765625 0.5625 L 18.09375 -18.09375 L 18.015625 -18.09375 L 12.640625 0.5625 L 8.546875 0.5625 L -0.53125 -28.53125 L 5.296875 -28.53125 L 11.046875 -9.078125 L 11.125 -9.078125 L 16.796875 -28.90625 Z M 20.09375 -28.90625 "/></g></g></g><g fill="#ff914d" fill-opacity="1"><g transform="translate(220.647904, 118.658818)"><g><path d="M 7.609375 -28.53125 L 7.609375 -4.84375 L 15.484375 -4.84375 L 15.484375 0 L 2.046875 0 L 2.046875 -28.53125 Z M 7.609375 -28.53125 "/></g></g></g><g fill="#ff914d" fill-opacity="1"><g transform="translate(235.86057, 118.658818)"><g><path d="M 7.609375 -28.53125 L 7.609375 0 L 2.046875 0 L 2.046875 -28.53125 Z M 7.609375 -28.53125 "/></g></g></g><g fill="#ff914d" fill-opacity="1"><g transform="translate(245.472555, 118.658818)"><g><path d="M 6.0625 -29.296875 L 21.078125 -9.34375 L 21.15625 -9.34375 L 21.15625 -28.53125 L 26.71875 -28.53125 L 26.71875 0.5625 L 22.703125 0.5625 L 7.6875 -19.375 L 7.609375 -19.375 L 7.609375 0 L 2.046875 0 L 2.046875 -29.296875 Z M 6.0625 -29.296875 "/></g></g></g><g fill="#ff914d" fill-opacity="1"><g transform="translate(274.194975, 118.658818)"><g><path d="M 7.609375 -28.53125 L 7.609375 -16.5 L 7.6875 -16.5 L 16.5 -28.53125 L 23.34375 -28.53125 L 12.53125 -15.359375 L 23.953125 0 L 16.796875 0 L 7.6875 -12.828125 L 7.609375 -12.828125 L 7.609375 0 L 2.046875 0 L 2.046875 -28.53125 Z M 7.609375 -28.53125 "/></g></g></g></svg>